<?xml version="1.0" encoding="UTF-8" standalone="no"?>
<svg width="90px" height="70px" viewBox="0 0 90 70" version="1.1" xmlns="http://www.w3.org/2000/svg" xmlns:xlink="http://www.w3.org/1999/xlink">
    <!-- Generator: Sketch 40.1 (33804) - http://www.bohemiancoding.com/sketch -->
    <title>code</title>
    <desc>Created with Sketch.</desc>
    <defs></defs>
    <g id="Page-1" stroke="none" stroke-width="1" fill="none" fill-rule="evenodd">
        <g id="code" fill="#000000">
            <path d="M81.9,0.2 L8.1,0.2 C3.6,0.2 0,3.8 0,8.3 L0,61.6 C0,66.1 3.6,69.7 8.1,69.7 L81.9,69.7 C86.4,69.7 90,66.1 90,61.6 L90,8.3 C90,3.9 86.4,0.2 81.9,0.2 L81.9,0.2 Z M86.2,61.7 C86.2,64.1 84.3,66 81.9,66 L8.1,66 C5.7,66 3.8,64.1 3.8,61.7 L3.8,18.8 L86.2,18.8 L86.2,61.7 L86.2,61.7 Z M86.2,15 L3.8,15 L3.8,8.3 C3.8,5.9 5.7,4 8.1,4 L81.9,4 C84.3,4 86.2,5.9 86.2,8.3 L86.2,15 L86.2,15 Z" id="Shape"></path>
            <path d="M45,12.1 L79.3,12.1 C79.7,12.1 80,11.8 80,11.4 L80,9 C80,8.6 79.7,8.3 79.3,8.3 L45,8.3 C44.6,8.3 44.3,8.6 44.3,9 L44.3,11.4 C44.3,11.8 44.6,12.1 45,12.1 L45,12.1 Z" id="Shape"></path>
            <circle id="Oval" cx="10.2" cy="10.2" r="1.9"></circle>
            <circle id="Oval" cx="16.4" cy="10.2" r="1.9"></circle>
            <circle id="Oval" cx="23.1" cy="10.2" r="1.9"></circle>
            <path d="M32.8,49.7 L25,41.9 L32,34.9 C32.7,34.2 32.7,33 32,32.2 L32,32.2 C31.3,31.5 30.1,31.5 29.3,32.2 L21.2,40.4 C20.3,41.3 20.3,42.6 21.2,43.5 L30.1,52.4 C30.8,53.1 32,53.1 32.8,52.4 L32.8,52.4 C33.6,51.6 33.6,50.4 32.8,49.7 L32.8,49.7 Z" id="Shape"></path>
            <path d="M59.4,52.4 L68.3,43.5 C69.2,42.6 69.2,41.3 68.3,40.4 L60.1,32.2 C59.4,31.5 58.2,31.5 57.4,32.2 L57.4,32.2 C56.7,32.9 56.7,34.1 57.4,34.9 L64.4,41.9 L56.6,49.7 C55.9,50.4 55.9,51.6 56.6,52.4 L56.6,52.4 C57.4,53.1 58.6,53.1 59.4,52.4 L59.4,52.4 Z" id="Shape"></path>
            <path d="M52.3,30.7 L52.3,30.7 C51.4,30.2 50.2,30.4 49.7,31.3 L37.5,51.3 C37,52.2 37.2,53.4 38.1,53.9 L38.1,53.9 C39,54.4 40.2,54.2 40.7,53.3 L52.8,33.4 C53.5,32.4 53.2,31.2 52.3,30.7 L52.3,30.7 Z" id="Shape"></path>
        </g>
    </g>
</svg>