<?xml version="1.0" encoding="UTF-8"?>
<svg width="250px" height="204px" viewBox="0 0 250 204" version="1.1" xmlns="http://www.w3.org/2000/svg" xmlns:xlink="http://www.w3.org/1999/xlink">
    <!-- Generator: Sketch 40.3 (33839) - http://www.bohemiancoding.com/sketch -->
    <title>contact-tw</title>
    <desc>Created with Sketch.</desc>
    <defs></defs>
    <g id="Page-1" stroke="none" stroke-width="1" fill="none" fill-rule="evenodd">
        <g id="contact-tw">
            <path d="M78.62,203.13969 C172.96,203.13969 224.56,124.97969 224.56,57.1996903 C224.56,54.9796903 224.56,52.7696903 224.41,50.5696903 C234.448314,43.3087989 243.113555,34.3184843 250,24.0196903 C240.638791,28.167708 230.708293,30.8879768 220.54,32.0896903 C231.24744,25.6795109 239.261235,15.5974102 243.09,3.71969031 C233.021575,9.69424347 222.006461,13.9048105 210.52,16.1696903 C194.620828,-0.736366898 169.357194,-4.87418384 148.895493,6.07648959 C128.433792,17.027163 117.86275,40.3429476 123.11,62.9496903 C81.8689574,60.8821857 43.4447578,41.402923 17.4,9.35969031 C3.78622756,32.7961376 10.7398788,62.7782851 33.28,77.8296903 C25.117412,77.5877658 17.1327937,75.3858221 10,71.4096903 L10,72.0596903 C10.0066813,96.47562 27.2175149,117.505042 51.15,122.33969 C43.598696,124.399091 35.6758059,124.700133 27.99,123.21969 C34.7094793,144.113919 53.9657456,158.427529 75.91,158.83969 C57.7473504,173.11401 35.3105951,180.862968 12.21,180.83969 C8.12903569,180.831856 4.05204065,180.584765 0,180.09969 C23.4563595,195.152456 50.749134,203.13686 78.62,203.09969" id="Shape" fill="#37E7F7"></path>
            <path d="M120.054674,62.764361 L160.009761,179.29038 C202.200849,150.932342 224.56,101.817102 224.56,57.1996903 C224.56,54.9796903 224.56,52.7696903 224.41,50.5696903 C234.448314,43.3087989 243.113555,34.3184843 250,24.0196903 C240.638791,28.167708 230.708293,30.8879768 220.54,32.0896903 C231.24744,25.6795109 239.261235,15.5974102 243.09,3.71969031 C233.021575,9.69424347 222.006461,13.9048105 210.52,16.1696903 C194.620828,-0.736366898 169.357194,-4.87418384 148.895493,6.07648959 C128.433792,17.027163 117.86275,40.3429476 123.11,62.9496903 C122.089786,62.8985447 121.071296,62.8367438 120.054674,62.764361 L120.054674,62.764361 Z" id="Combined-Shape" fill="#2DD8EF"></path>
            <path d="M160.476849,178.975038 L220.177674,92.0415656 C211.807725,125.510684 191.56684,157.892301 160.476849,178.975038 L160.476849,178.975038 Z" id="Combined-Shape" fill="#1BB9DE"></path>
            <path d="M13.5004653,17.7032491 C5.59901848,39.5182176 13.3414218,64.515493 33.28,77.8296903 C25.117412,77.5877658 17.1327937,75.3858221 10,71.4096903 L10,72.0596903 C10.0066813,96.47562 27.2175149,117.505042 51.15,122.33969 C43.598696,124.399091 35.6758059,124.700133 27.99,123.21969 C33.5071017,140.375124 47.4757655,153.094294 64.4445748,157.32504 L13.5004653,17.7032491 L13.5004653,17.7032491 Z" id="Combined-Shape" fill="#22C6E5"></path>
            <path d="M160.221098,179.148043 L16.918709,97.7817271 C24.0955918,110.148088 36.3349042,119.346864 51.15,122.33969 C43.598696,124.399091 35.6758059,124.700133 27.99,123.21969 C34.7094793,144.113919 53.9657456,158.427529 75.91,158.83969 C57.7473504,173.11401 35.3105951,180.862968 12.21,180.83969 C8.12903569,180.831856 4.05204065,180.584765 0,180.09969 C3.11471586,182.098512 6.29707758,183.972701 9.53945616,185.720024 L160.050524,179.26297 C160.107417,179.224702 160.164276,179.186393 160.221098,179.148047 L160.221098,179.148043 Z" id="Combined-Shape" fill="#22C6E5"></path>
            <path d="M9.1758241,185.523394 L160.386385,179.036331 C138.419392,193.907032 111.04403,203.13969 78.62,203.13969 L78.62,203.09969 C54.311594,203.132109 30.4429407,197.062536 9.1758241,185.523394 L9.1758241,185.523394 Z" id="Combined-Shape" fill="#15AAD4"></path>
            <path d="M49.659582,116.804022 L17.302376,98.4317766 C24.5272596,110.469997 36.5956778,119.399543 51.15,122.33969 C43.598696,124.399091 35.6758059,124.700133 27.99,123.21969 C33.5071017,140.375124 47.4757655,153.094294 64.4445748,157.32504 L49.659582,116.804022 L49.659582,116.804022 Z" id="Combined-Shape" fill="#15AAD4"></path>
        </g>
    </g>
</svg>