<?xml version="1.0" encoding="UTF-8" standalone="no"?>
<svg width="137px" height="135px" viewBox="0 0 137 135" version="1.1" xmlns="http://www.w3.org/2000/svg" xmlns:xlink="http://www.w3.org/1999/xlink">
    <!-- Generator: Sketch 40.3 (33839) - http://www.bohemiancoding.com/sketch -->
    <title>Artboard Copy</title>
    <desc>Created with Sketch.</desc>
    <defs>
        <polygon id="path-1" points="74.327923 4.6013986 58.0344828 9.21457059 71.9976428 16.8063128"></polygon>
        <mask id="mask-2" maskContentUnits="userSpaceOnUse" maskUnits="objectBoundingBox" x="-5" y="-5" width="26.2934402" height="22.2049142">
            <rect x="53.0344828" y="-0.398601399" width="26.2934402" height="22.2049142" fill="white"></rect>
            <use xlink:href="#path-1" fill="black"></use>
        </mask>
        <linearGradient x1="100%" y1="4.15843079%" x2="-8.18275126%" y2="76.1674353%" id="linearGradient-3">
            <stop stop-color="#FFFFFF" offset="0%"></stop>
            <stop stop-color="#000000" offset="100%"></stop>
        </linearGradient>
        <polygon id="path-4" points="0 44.8650295 3.14520474 68.5927939 41.9736665 114.47 67.4467942 122.388494 78.0307112 115.058826 64.0961746 75.7847055 116.04509 65.0186776 124.673357 40.2930166 59.6679688 11.0465813 55.3912985 0 14.9624529 22.4845935 10.6293777 39.889826"></polygon>
        <mask id="mask-5" maskContentUnits="userSpaceOnUse" maskUnits="objectBoundingBox" x="-5" y="-5" width="134.673357" height="132.388494">
            <rect x="-5" y="-5" width="134.673357" height="132.388494" fill="white"></rect>
            <use xlink:href="#path-4" fill="black"></use>
        </mask>
        <linearGradient x1="89.8922434%" y1="94.3049875%" x2="0%" y2="6.09117494%" id="linearGradient-6">
            <stop stop-color="#FFFFFF" offset="0%"></stop>
            <stop stop-color="#000000" offset="100%"></stop>
        </linearGradient>
    </defs>
    <g id="logo" stroke="none" stroke-width="1" fill="none" fill-rule="evenodd">
        <g id="Artboard-Copy">
            <g id="cr-logo" transform="translate(6.000000, 7.000000)">
                <g id="Path-3-Copy-9">
                    <use fill="#FF0880" fill-rule="evenodd" xlink:href="#path-1"></use>
                    <use stroke="#FFFFFF" mask="url(#mask-2)" stroke-width="10" xlink:href="#path-1"></use>
                </g>
                <g id="COLOR-Copy-12">
                    <use fill="#FF077E" fill-rule="evenodd" xlink:href="#path-4"></use>
                    <use fill-opacity="0.100000001" fill="url(#linearGradient-3)" fill-rule="evenodd" style="mix-blend-mode: overlay;" xlink:href="#path-4"></use>
                    <use stroke="#FFFFFF" mask="url(#mask-5)" stroke-width="10" xlink:href="#path-4"></use>
                </g>
                <polygon id="Combined-Shape-Copy-63" fill="#DA1689" points="3.06301596 68.1077234 27.5092773 59.5512695 -7.99360578e-14 45"></polygon>
                <polygon id="Path-16-Copy-9" fill="#E90F84" points="44.4327519 35.2657343 27.4060059 59.5861816 11.2068966 40.7503858"></polygon>
                <polygon id="Combined-Shape-Copy-54" fill="#CB1C90" points="3.3125 68.7678223 42.3459588 114.611757 67.1724263 122.329233"></polygon>
                <polygon id="Combined-Shape-Copy-59" fill="#B526A3" points="116.442185 65.1553215 125.070451 40.4296605 124.115455 40 28 59.9278291 116.074384 65.2315455"></polygon>
                <path d="M78.0307112,115.058826 L64.0961746,75.7847055 L116.178223,65.0380859 L27.5862069,59.4825772 L67.6810421,122.226271 L78.0307112,115.058826 Z M44.3186793,18.9230769 L43.8943797,34.1783797 L56.7132358,24.941116 L44.3186793,18.9230769 L44.3186793,18.9230769 Z" id="Combined-Shape-Copy-60" fill="#2C049E"></path>
                <polygon id="Path-18-Copy-11" fill="#A72CA7" points="55.654802 0 44.1409407 19.519778 15.5172414 22.5738414"></polygon>
                <polygon id="Combined-Shape-Copy-61" fill="url(#linearGradient-6)" opacity="0.300000012" style="mix-blend-mode: lighten;" points="28.4482759 60.2097902 51.2773282 95.9345676 65.1045219 99.910858 45.0071182 67.9378466"></polygon>
                <polygon id="Combined-Shape-Copy-62" fill="#A72CA9" points="123.258658 39.6821491 59.9116186 11.1818182 56.8965517 24.831811 123.258658 39.6821491"></polygon>
                <polygon id="Path-12-Copy-10" fill="#D41891" points="44.519043 18.7832168 15.5172414 22.0879094 44.0930597 34.0216675"></polygon>
            </g>
        </g>
    </g>
</svg>