<?xml version="1.0" encoding="UTF-8" standalone="no"?>
<svg width="154px" height="111px" viewBox="0 0 154 111" version="1.1" xmlns="http://www.w3.org/2000/svg" xmlns:xlink="http://www.w3.org/1999/xlink">
    <!-- Generator: Sketch 40.3 (33839) - http://www.bohemiancoding.com/sketch -->
    <title>laptop</title>
    <desc>Created with Sketch.</desc>
    <defs></defs>
    <g id="Page-1" stroke="none" stroke-width="1" fill="none" fill-rule="evenodd">
        <g id="laptop">
            <rect id="Rectangle-4" fill="#F92381" x="20" y="0" width="114" height="83" rx="1"></rect>
            <rect id="Rectangle-5" fill="#AB269D" x="23" y="3" width="106" height="75" rx="1"></rect>
            <path d="M20,31.3441065 L99.9973621,83 L21.0028751,83 C20.4490025,83 20,82.5534374 20,81.9953354 L20,31.3441065 L20,31.3441065 Z" id="Combined-Shape" fill="#565656" style="mix-blend-mode: darken;" opacity="0.300000012"></path>
            <path d="M20.2934633,82.7066839 L123.74006,0 L132.997125,0 C133.550998,0 134,0.446562648 134,1.0046646 L134,81.9953354 C134,82.5501963 133.55254,83 132.997125,83 L21.0028751,83 C20.7258004,83 20.4749694,82.8882477 20.2934633,82.7066839 L20.2934633,82.7066839 Z" id="Combined-Shape" fill="#565656" style="mix-blend-mode: darken;" opacity="0.300000012"></path>
            <path d="M19.3459349,81.7521748 C19.7071651,81.3367601 20.44746,81 21.0028751,81 L132.997125,81 C133.550998,81 134.298243,81.34298 134.654065,81.7521748 L153.345935,103.247825 C153.707165,103.66324 154,104.450975 154,104.990778 L154,110 L0,110 L0,104.990778 C0,104.443586 0.298243463,103.65702 0.65406505,103.247825 L19.3459349,81.7521748 Z" id="Rectangle-4-Copy" fill="#F92381"></path>
            <path d="M154,107.5 L154,104.990778 C154,104.450975 153.707165,103.66324 153.345935,103.247825 L134.654065,81.7521748 C134.298243,81.34298 133.550998,81 132.997125,81 L21.0028751,81 C20.44746,81 19.7071651,81.3367601 19.3459349,81.7521748 L0.65406505,103.247825 C0.298243463,103.65702 0,104.443586 0,104.990778 L0,107.5 L0,111 L154,111 L154,107.5 L154,107.5 Z" id="Combined-Shape" fill="#F92381"></path>
            <path d="M139.203492,86.9840155 L134.654065,81.7521748 C134.451748,81.5195103 134.122885,81.3082527 133.774976,81.169278 L127.89659,81.169278 L81.9613064,111 L148.204072,111 L139.203492,86.9840155 L139.203492,86.9840155 Z" id="Combined-Shape" fill="#565656" style="mix-blend-mode: darken;" opacity="0.129999995"></path>
            <path d="M15.4360002,86.2485998 L0.65406505,103.247825 C0.298243463,103.65702 0,104.443586 0,104.990778 L0,107.5 L0,111 L53.7674778,111 L15.4360002,86.2485998 L15.4360002,86.2485998 Z" id="Combined-Shape" fill="#565656" style="mix-blend-mode: darken;" opacity="0.200000003"></path>
            <rect id="Rectangle-6" fill="#565656" style="mix-blend-mode: darken;" opacity="0.300000012" x="0" y="105" width="154" height="6"></rect>
        </g>
    </g>
</svg>