<?xml version="1.0" encoding="UTF-8" standalone="no"?>
<svg width="75px" height="72px" viewBox="0 0 75 72" version="1.1" xmlns="http://www.w3.org/2000/svg" xmlns:xlink="http://www.w3.org/1999/xlink">
    <!-- Generator: Sketch 40.1 (33804) - http://www.bohemiancoding.com/sketch -->
    <title>research</title>
    <desc>Created with Sketch.</desc>
    <defs></defs>
    <g id="Page-1" stroke="none" stroke-width="1" fill="none" fill-rule="evenodd">
        <g id="research" fill="#000000">
            <path d="M46.3225288,0.5942602 C30.8537941,0.5942602 18.2690353,13.1766205 18.2690353,28.64186 C18.2690353,33.1011801 19.3199958,37.3178587 21.1795158,41.0655775 L1.9073954,60.3387833 C1.8487149,60.3973389 1.8193293,60.4709015 1.7752753,60.5374985 C0.9410353,61.5176621 0.6669551,62.9412232 1.0377551,64.5036164 C1.3928348,65.9942628 2.2893554,67.5176621 3.5631543,68.7903825 C5.3139554,70.5399781 7.4092751,71.4751435 9.2080746,71.4751435 C10.3061943,71.4751435 11.294035,71.1258164 12.0241299,70.39814 L12.0245953,70.3974228 C12.0248356,70.3973007 12.025074,70.3973007 12.025074,70.3973007 L30.5891953,51.854538 C35.0791131,54.907219 40.4957924,56.6942597 46.3225289,56.6942597 C61.7901536,56.6942597 74.3749314,44.1095009 74.3749314,28.641861 C74.3749313,13.1766205 61.7901535,0.5942602 46.3225288,0.5942602 L46.3225288,0.5942602 Z M10.3295956,68.6989365 C9.5092755,69.516861 7.1678353,69.0001374 5.2600746,67.0934601 C4.3096752,66.1442566 3.6229286,64.9981384 3.3733291,63.948143 C3.1729297,63.1044235 3.2737293,62.4036179 3.6511154,62.0262222 C3.6839943,61.9933395 3.6969547,61.9502563 3.725275,61.9146194 L22.385395,43.2534217 C24.0549545,45.9780196 26.1772727,48.3953017 28.6456756,50.4040984 L10.3295956,68.6989365 L10.3295956,68.6989365 Z M46.3225288,54.2942581 C32.1769294,54.2942581 20.669033,42.7863808 20.669033,28.6418609 C20.669033,14.4997405 32.1769294,2.9942607 46.3225288,2.9942607 C60.4671554,2.9942607 71.9749298,14.4997405 71.9749298,28.6418609 C71.9749298,42.7863808 60.4671555,54.2942581 46.3225288,54.2942581 L46.3225288,54.2942581 Z" id="Shape"></path>
            <path d="M59.3246307,15.7070599 C59.3137283,15.6951809 59.310234,15.6794606 59.2987136,15.6680603 C59.2873305,15.6566601 59.2718352,15.6530609 59.2599563,15.6422596 C55.9390717,12.3379402 51.3652725,10.29146 46.321434,10.29146 C36.2011146,10.29146 27.9686355,18.523941 27.9686355,28.6442604 C27.9686355,33.6888199 30.0157279,38.2630997 33.3209953,41.5837402 C33.3313293,41.5948982 33.3344345,41.609539 33.3452339,41.6204605 C33.3560333,41.6312599 33.3706741,41.6342583 33.3818359,41.6446991 C36.7024726,44.9499817 41.2767524,46.9969406 46.321434,46.9969406 C56.4417572,46.9969406 64.6753311,38.7645798 64.6753311,28.6442604 C64.6753311,23.6007805 62.6287155,19.0275803 59.3246307,15.7070599 L59.3246307,15.7070599 Z M47.5214348,12.7523003 C51.0178757,13.0143795 54.1996765,14.4018193 56.7085266,16.5613404 L47.5214348,25.7473412 L47.5214348,12.7523003 L47.5214348,12.7523003 Z M45.1214333,12.7523003 L45.1214333,28.1473389 L34.2385292,39.0302582 C31.8333549,36.2361794 30.3686333,32.6112213 30.3686333,28.6442604 C30.3686333,20.2531395 36.8855934,13.37006 45.1214333,12.7523003 L45.1214333,12.7523003 Z M51.0370712,43.8844986 C51.0478744,43.8196983 51.0757293,43.7610207 51.0757293,43.6931 C51.0757293,43.0303383 50.538475,42.4930992 49.8757285,42.4930992 C49.2129554,42.4930992 48.6757277,43.0303383 48.6757277,43.6931 C48.6757277,43.9489403 48.7735136,44.172741 48.9098319,44.3676186 C48.0652732,44.5063401 47.2046355,44.5969391 46.3214339,44.5969391 C45.6575927,44.5969391 45.0073279,44.5433006 44.3645934,44.4642182 C44.5441283,44.2544594 44.6638755,43.9908219 44.6638755,43.6931 C44.6638755,43.0303383 44.1266326,42.4930992 43.4638747,42.4930992 C42.801113,42.4930992 42.2638739,43.0303383 42.2638739,43.6931 C42.2638739,43.8282204 42.2995146,43.9527817 42.3406752,44.0738602 C39.9411543,43.4540596 37.7597922,42.297741 35.9353293,40.7271805 L47.169834,29.4926605 L58.4054335,18.2581405 C58.7943571,18.7099418 59.1649321,19.1775817 59.5019911,19.6711387 C59.4988707,19.6711387 59.496475,19.6694602 59.4933546,19.6694602 C58.8305967,19.6694602 58.29335,20.2066993 58.29335,20.869461 C58.29335,21.5321006 58.8305967,22.0694618 59.4933546,22.0694618 C59.9482725,22.0694618 60.3302305,21.8066597 60.5336302,21.4335785 C60.9302366,22.2116585 61.275833,23.019619 61.5417555,23.8645401 C61.5286711,23.9355812 61.499275,24.0006218 61.499275,24.0753784 C61.499275,24.3739395 61.6193922,24.6384201 61.7998731,24.8485412 C62.0991514,26.0676193 62.2753293,27.3343391 62.2753293,28.6442603 C62.2753293,28.8926581 62.2492749,29.1344603 62.237991,29.3802184 C61.8044354,29.56118 61.4992749,29.9880217 61.4992749,30.4869803 C61.4992749,30.889099 61.7097546,31.2273787 62.0133511,31.4453009 C60.9619141,37.3459396 56.6693954,42.1383781 51.0370712,43.8844986 L51.0370712,43.8844986 Z" id="Shape"></path>
            <circle id="Oval" cx="40.2579536" cy="40.1048584" r="1.2"></circle>
            <circle id="Oval" cx="46.6697922" cy="40.1048584" r="1.2"></circle>
            <circle id="Oval" cx="43.4638748" cy="36.898941" r="1.2"></circle>
            <circle id="Oval" cx="46.6697922" cy="33.6930199" r="1.2"></circle>
            <circle id="Oval" cx="53.0816345" cy="40.1048584" r="1.2"></circle>
            <circle id="Oval" cx="49.8757286" cy="36.898941" r="1.2"></circle>
            <circle id="Oval" cx="53.0816345" cy="33.6930199" r="1.2"></circle>
            <circle id="Oval" cx="56.2874374" cy="36.898941" r="1.2"></circle>
            <circle id="Oval" cx="59.4933548" cy="33.6930199" r="1.2"></circle>
            <circle id="Oval" cx="49.8757286" cy="30.4869804" r="1.2"></circle>
            <circle id="Oval" cx="56.2874374" cy="30.4869804" r="1.2"></circle>
            <circle id="Oval" cx="53.0816345" cy="27.2812996" r="1.2"></circle>
            <circle id="Oval" cx="59.4933548" cy="27.2812996" r="1.2"></circle>
            <circle id="Oval" cx="56.2874374" cy="24.0753784" r="1.2"></circle>
        </g>
    </g>
</svg>