<?xml version="1.0" encoding="UTF-8" standalone="no"?>
<svg width="165px" height="107px" viewBox="0 0 165 107" version="1.1" xmlns="http://www.w3.org/2000/svg" xmlns:xlink="http://www.w3.org/1999/xlink">
    <!-- Generator: Sketch 40.2 (33826) - http://www.bohemiancoding.com/sketch -->
    <title>tv</title>
    <desc>Created with Sketch.</desc>
    <defs>
        <rect id="path-1" x="0" y="0" width="165" height="92" rx="1"></rect>
    </defs>
    <g id="Page-1" stroke="none" stroke-width="1" fill="none" fill-rule="evenodd">
        <g id="tv">
            <rect id="Rectangle-9" fill="#E8237C" x="11" y="100" width="144" height="7"></rect>
            <path d="M69.6558477,82 L95.3441523,82 C93.8157521,83.5931437 93,85.2695565 93,87 C93,92.5404228 101.362367,97.5269715 114.703086,101 L50.2969143,101 C63.6376333,97.5269715 72,92.5404228 72,87 C72,85.2695565 71.1842479,83.5931437 69.6558477,82 Z" id="Combined-Shape" fill="#D32377"></path>
            <g id="Rectangle-4-Copy-3-+-Path-3-Copy-5-+-Path-3-Copy-4-+-Rectangle-4-Copy-6-Mask-Copy-Copy">
                <mask id="mask-2" fill="white">
                    <use xlink:href="#path-1"></use>
                </mask>
                <use id="Mask" fill="#45D8E7" xlink:href="#path-1"></use>
                <rect id="Rectangle-4-Copy-6" fill="#EE087A" mask="url(#mask-2)" x="0" y="0" width="165" height="92" rx="1"></rect>
                <rect id="Rectangle-4-Copy-3" fill="#B526A5" mask="url(#mask-2)" x="7.51162791" y="5.71794872" width="151.976744" height="80.2051282" rx="1"></rect>
                <polygon id="Path-3-Copy-5" fill="#565656" style="mix-blend-mode: darken;" opacity="0.229999989" mask="url(#mask-2)" transform="translate(10.787943, 40.550279) rotate(90.000000) translate(-10.787943, -40.550279) " points="-145.621212 7.74708495 184.918906 73.3534725 -163.343019 73.3534725"></polygon>
                <polygon id="Path-3-Copy-6" fill="#565656" style="mix-blend-mode: darken;" opacity="0.100000001" mask="url(#mask-2)" transform="translate(105.423993, 82.335461) rotate(-90.000000) translate(-105.423993, -82.335461) " points="-73.1355211 9.79699996 304.215042 154.873923 -93.3670557 154.873923"></polygon>
                <polygon id="Path-3-Copy-10" fill="#565656" style="mix-blend-mode: darken;" opacity="0.100000001" mask="url(#mask-2)" transform="translate(32.770924, 112.617892) rotate(138.000000) translate(-32.770924, -112.617892) " points="-41.3328151 30.1399153 115.270924 195.09587 -49.7290764 195.09587"></polygon>
            </g>
        </g>
    </g>
</svg>