<?xml version="1.0" encoding="UTF-8" standalone="no"?>
<svg width="165px" height="107px" viewBox="0 0 165 107" version="1.1" xmlns="http://www.w3.org/2000/svg" xmlns:xlink="http://www.w3.org/1999/xlink">
    <!-- Generator: Sketch 40.3 (33839) - http://www.bohemiancoding.com/sketch -->
    <title>tv</title>
    <desc>Created with Sketch.</desc>
    <defs></defs>
    <g id="Page-1" stroke="none" stroke-width="1" fill="none" fill-rule="evenodd">
        <g id="tv">
            <rect id="Rectangle-9" fill="#E8237C" x="11" y="100" width="144" height="7"></rect>
            <path d="M69.6558477,82 L95.3441523,82 C93.8157521,83.5931437 93,85.2695565 93,87 C93,92.5404228 101.362367,97.5269715 114.703086,101 L50.2969143,101 C63.6376333,97.5269715 72,92.5404228 72,87 C72,85.2695565 71.1842479,83.5931437 69.6558477,82 Z" id="Combined-Shape" fill="#D32377"></path>
            <g id="Rectangle-4-Copy-3-+-Path-3-Copy-5-+-Path-3-Copy-4-+-Rectangle-4-Copy-6-Mask-Copy-Copy">
                <rect id="Rectangle-4-Copy-6" fill="#EE087A" x="0" y="0" width="165" height="92" rx="1"></rect>
                <rect id="Rectangle-4-Copy-3" fill="#B526A5" x="7.51162791" y="5.71794872" width="151.976744" height="80.2051282" rx="1"></rect>
                <path d="M20.5951921,0 L1.00033372,0 C0.444502244,0 0,0.44854259 0,1.00184792 L0,90.9981521 C0,91.5483863 0.447864662,92 1.00033372,92 L2.33481361,92 L20.5951921,2.13162821e-14 Z" id="Combined-Shape" fill="#565656" style="mix-blend-mode: darken;" opacity="0.229999989"></path>
                <path d="M133.189716,1.42108547e-14 L163.999666,1.42108547e-14 C164.552135,1.42108547e-14 165,0.451613724 165,1.00184792 L165,90.9981521 C165,91.5514574 164.555498,92 163.999666,92 L97.8192188,92 L133.189716,-1.0658141e-14 Z" id="Combined-Shape" fill="#565656" style="mix-blend-mode: darken;" opacity="0.100000001"></path>
                <path d="M34.5843615,7.10542736e-15 L42.04222,7.10542736e-15 L116.771695,92 L1.00033372,92 C0.447864662,92 0,91.5483863 0,90.9981521 L0,31.139899 L34.5843615,-5.99520433e-15 Z" id="Combined-Shape" fill="#565656" style="mix-blend-mode: darken;" opacity="0.100000001"></path>
            </g>
        </g>
    </g>
</svg>