<?xml version="1.0" encoding="UTF-8" standalone="no"?>
<svg width="32px" height="30px" viewBox="0 0 32 30" version="1.1" xmlns="http://www.w3.org/2000/svg" xmlns:xlink="http://www.w3.org/1999/xlink">
    <!-- Generator: Sketch 40.1 (33804) - http://www.bohemiancoding.com/sketch -->
    <title>ux</title>
    <desc>Created with Sketch.</desc>
    <defs></defs>
    <g id="Page-1" stroke="none" stroke-width="1" fill="none" fill-rule="evenodd">
        <g id="ux">
            <path d="M28,6.5 L4,6.5 L4,13.5 L28,13.5 L28,6.5 L28,6.5 Z M27,12.5 L5,12.5 L5,7.5 L27,7.5 L27,12.5 L27,12.5 Z" id="Shape" fill="#000000"></path>
            <path d="M17,23.5 L28,23.5 L28,16.5 L17,16.5 L17,23.5 L17,23.5 Z M18,17.5 L27,17.5 L27,22.5 L18,22.5 L18,17.5 L18,17.5 Z" id="Shape" fill="#000000"></path>
            <rect id="Rectangle-path" fill="#000000" x="4" y="22.5" width="11" height="1"></rect>
            <rect id="Rectangle-path" fill="#000000" x="4" y="19.5" width="11" height="1"></rect>
            <rect id="Rectangle-path" fill="#000000" x="4" y="16.5" width="11" height="1"></rect>
            <path d="M7.72,28.125 L24.28,28.125 L25.158,29.25 L32,29.25 L32,0.75 L25.158,0.75 L24.28,1.875 L7.72,1.875 L6.842,0.75 L0,0.75 L0,29.25 L6.842,29.25 L7.72,28.125 L7.72,28.125 Z M1,28.25 L1,1.75 L6.354,1.75 L6.932,2.49 L7.232,2.875 L7.72,2.875 L24.28,2.875 L24.768,2.875 L25.068,2.49 L25.646,1.75 L31,1.75 L31,28.25 L25.646,28.25 L25.068,27.51 L24.768,27.125 L24.28,27.125 L7.72,27.125 L7.232,27.125 L6.932,27.51 L6.354,28.25 L1,28.25 L1,28.25 Z" id="Shape" fill="#000000"></path>
            <rect id="Rectangle-path" fill="#000000" x="5" y="7.5" width="22" height="5"></rect>
            <rect id="Rectangle-path" fill="#000000" x="18" y="17.5" width="9" height="5"></rect>
            <path d="M27.5,7 L27.5,13 L4.5,13 L4.5,7 L27.5,7 L27.5,7 Z M28,6.5 L4,6.5 L4,13.5 L28,13.5 L28,6.5 L28,6.5 L28,6.5 Z" id="Shape" fill="#000000"></path>
            <path d="M27.5,17 L27.5,23 L17.5,23 L17.5,17 L27.5,17 L27.5,17 Z M28,16.5 L17,16.5 L17,23.5 L28,23.5 L28,16.5 L28,16.5 L28,16.5 Z" id="Shape" fill="#000000"></path>
            <path d="M4,23 L15,23" id="Shape" stroke="#000000" stroke-width="0.5"></path>
            <path d="M4,20 L15,20" id="Shape" stroke="#000000" stroke-width="0.5"></path>
            <path d="M4,17 L15,17" id="Shape" stroke="#000000" stroke-width="0.5"></path>
            <path d="M31.5,1.25 L31.5,28.75 L25.402,28.75 L24.674,27.817 L24.524,27.625 L24.28,27.625 L7.72,27.625 L7.476,27.625 L7.326,27.817 L6.598,28.75 L0.5,28.75 L0.5,1.25 L6.598,1.25 L7.326,2.183 L7.476,2.375 L7.72,2.375 L24.28,2.375 L24.524,2.375 L24.674,2.183 L25.402,1.25 L31.5,1.25 L31.5,1.25 Z M32,0.75 L25.158,0.75 L24.28,1.875 L7.72,1.875 L6.842,0.75 L0,0.75 L0,29.25 L6.842,29.25 L7.72,28.125 L24.28,28.125 L25.158,29.25 L32,29.25 L32,0.75 L32,0.75 L32,0.75 Z" id="Shape" fill="#000000"></path>
            <path d="M26,8.5 L26,11.5 L6,11.5 L6,8.5 L26,8.5 L26,8.5 Z M28,6.5 L4,6.5 L4,13.5 L28,13.5 L28,6.5 L28,6.5 L28,6.5 Z" id="Shape" fill="#000000"></path>
            <path d="M26,18.5 L26,21.5 L19,21.5 L19,18.5 L26,18.5 L26,18.5 Z M28,16.5 L17,16.5 L17,23.5 L28,23.5 L28,16.5 L28,16.5 L28,16.5 Z" id="Shape" fill="#000000"></path>
            <path d="M4,23 L15,23" id="Shape" stroke="#000000" stroke-width="2"></path>
            <path d="M4,20 L15,20" id="Shape" stroke="#000000" stroke-width="2"></path>
            <path d="M4,17 L15,17" id="Shape" stroke="#000000" stroke-width="2"></path>
            <path d="M30,2.75 L30,27.25 L26.134,27.25 L25.856,26.894 L25.255,26.125 L24.28,26.125 L7.72,26.125 L6.744,26.125 L6.143,26.894 L5.866,27.25 L2,27.25 L2,2.75 L5.866,2.75 L6.144,3.106 L6.745,3.875 L7.72,3.875 L24.28,3.875 L25.256,3.875 L25.857,3.106 L26.135,2.75 L30,2.75 L30,2.75 Z M32,0.75 L25.158,0.75 L24.28,1.875 L7.72,1.875 L6.842,0.75 L0,0.75 L0,29.25 L6.842,29.25 L7.72,28.125 L24.28,28.125 L25.158,29.25 L32,29.25 L32,0.75 L32,0.75 L32,0.75 Z" id="Shape" fill="#000000"></path>
        </g>
    </g>
</svg>