<?xml version="1.0" encoding="UTF-8" standalone="no"?>
<svg width="138px" height="91px" viewBox="0 0 138 91" version="1.1" xmlns="http://www.w3.org/2000/svg" xmlns:xlink="http://www.w3.org/1999/xlink">
    <!-- Generator: Sketch 40.2 (33826) - http://www.bohemiancoding.com/sketch -->
    <title>vr</title>
    <desc>Created with Sketch.</desc>
    <defs>
        <path d="M90.4980281,48.4766355 C98.5274787,48.4766355 105.017544,42.0011271 105.017544,34.0131826 L105.017544,14.463453 C105.017544,6.47010346 98.5169352,0 90.4980281,0 L14.5195157,0 C6.49006517,0 1.42108547e-14,6.47550846 1.42108547e-14,14.463453 L1.42108547e-14,34.0131826 C1.42108547e-14,42.0065321 14.5195157,48.4766355 14.5195157,48.4766355 L28.9418428,48.4766355 L41.3801153,48.4766355 C41.3801153,48.4766355 44.0372309,47.9065797 44.893766,47.1511025 C47.1600484,45.1522064 48.181556,41.8262602 48.181556,41.8262602 C49.162162,40.0314765 51.5772058,38.0200705 53.3356817,38.0200705 C55.0941576,38.0200705 57.5092014,39.1810092 58.4898075,40.9757929 C58.4898075,40.9757929 59.2102091,43.5353393 59.3453797,44.1651525 C60.4360171,46.1487075 62.0621428,47.6456295 65.2912481,48.4766355 L90.4980281,48.4766355 Z" id="path-1"></path>
    </defs>
    <g id="Page-1" stroke="none" stroke-width="1" fill="none" fill-rule="evenodd">
        <g id="vr" transform="translate(-3.000000, 0.000000)">
            <g id="Group-5">
                <path d="M117.834655,50.0264125 C118.821437,47.4492152 121.790518,45.8964288 124.472034,46.5595888 L135.404132,49.2631829 C138.083074,49.9257064 140.163558,52.7001023 140.05095,55.4617852 L139.244891,75.2301454 C139.132316,77.9910155 136.80149,80.2291429 134.046067,80.2291429 L111.265343,80.2291429 C108.506687,80.2291429 107.07049,78.1394116 108.05708,75.5627143 L117.834655,50.0264125 Z" id="Rectangle-11" fill="#F92381" transform="translate(123.900541, 63.317815) rotate(78.000000) translate(-123.900541, -63.317815) "></path>
                <path d="M13.9051482,50.4354416 C14.8919294,47.8582443 17.8610112,46.3054579 20.5425269,46.9686179 L31.4746248,49.672212 C34.1535666,50.3347354 36.2340511,53.1091314 36.1214429,55.8708143 L35.3153836,75.6391745 C35.2028085,78.4000445 32.8719831,80.6381719 30.1165598,80.6381719 L7.33583575,80.6381719 C4.57717975,80.6381719 3.14098286,78.5484406 4.12757255,75.9717434 L13.9051482,50.4354416 Z" id="Rectangle-11-Copy-2" fill="#F92381" transform="translate(19.971033, 63.726844) scale(-1, 1) rotate(78.000000) translate(-19.971033, -63.726844) "></path>
                <path d="M59.5018552,4.88669217 C60.1960662,2.21498651 63.0057493,0.0491411393 65.7571918,0.0491411393 L79.194098,0.0491411393 C81.954614,0.0491411393 84.6079467,2.24782485 85.1207865,4.96164807 L94.2917078,53.4919258 C94.8044115,56.2050285 92.9913893,58.4044328 90.2117236,58.4044328 L50.6042217,58.4044328 C47.838205,58.4044328 46.1580823,56.2408668 46.8528856,53.5668817 L59.5018552,4.88669217 Z" id="Rectangle-11-Copy" fill="#F92381" transform="translate(70.537264, 29.226787) scale(-1, 1) translate(-70.537264, -29.226787) "></path>
                <path d="M84.3443653,90.1495327 L108.360353,90.1495327 C117.759355,90.1495327 125.362573,82.5361708 125.362573,73.144613 L125.362573,55.2759478 C125.362573,45.8840811 117.75042,38.271028 108.360353,38.271028 L33.9320442,38.271028 C24.5330432,38.271028 16.9298246,45.8843899 16.9298246,55.2759478 L16.9298246,73.144613 C16.9298246,82.5364797 24.5419776,90.1495327 33.9320442,90.1495327 L46.8128655,90.1495327 L46.8128655,89.9799332 C46.9862855,90.0388034 47.1617851,90.0953571 47.3392715,90.1495327 L59.6556347,90.1495327 C62.9897515,89.1930919 65.5503264,87.4702193 66.6764317,85.1872598 C66.8159982,84.4623804 67.5598275,82.4953271 67.5598275,82.4953271 C68.5723232,80.4296327 70.1843379,79.0934579 72,79.0934579 C73.8156621,79.0934579 75.4276768,80.4296327 76.4401725,82.4953271 C76.4401725,82.4953271 77.1840018,84.4623804 77.3235683,85.1872598 C78.4496736,87.4702193 81.0102485,89.1930919 84.3443653,90.1495327 Z" id="Combined-Shape" fill="#F92381"></path>
                <path d="M109.01741,89.2990654 C117.112141,89.2990654 123.654971,82.7099516 123.654971,74.5818677 L123.654971,54.6891604 C123.654971,46.5555767 117.101512,39.9719626 109.01741,39.9719626 L32.4211863,39.9719626 C24.3264557,39.9719626 17.7836257,46.5610765 17.7836257,54.6891604 L17.7836257,74.5818677 C17.7836257,82.7154514 32.4211863,89.2990654 32.4211863,89.2990654 L46.9607681,89.2990654 L59.5001647,89.2990654 C59.5001647,89.2990654 62.1788829,88.7190086 63.0423817,87.9502775 C65.3270891,85.9163129 66.3569017,82.5320168 66.3569017,82.5320168 C67.3454801,80.7057457 69.7801584,78.6590519 71.5529309,78.6590519 C73.3257034,78.6590519 75.7603816,79.840358 76.7489601,81.666629 C76.7489601,81.666629 77.4752186,84.2710798 77.6114882,84.9119423 C78.7109926,86.9302965 80.3503388,88.4534804 83.605697,89.2990654 L109.01741,89.2990654 Z" id="Combined-Shape-Copy" fill="#B136A6"></path>
                <g id="Path-3-Copy-+-Path-3-Copy-4-Mask" transform="translate(17.783626, 40.822430)">
                    <mask id="mask-2" fill="white">
                        <use xlink:href="#path-1"></use>
                    </mask>
                    <g id="Combined-Shape-Copy-2" opacity="0.689999998"></g>
                    <polygon id="Path-3-Copy" fill="#565656" style="mix-blend-mode: darken;" opacity="0.300000012" mask="url(#mask-2)" transform="translate(67.877193, 51.713643) rotate(-90.000000) translate(-67.877193, -51.713643) " points="28.1466727 -0.59009491 112.109346 104.017382 23.6450397 104.017382"></polygon>
                    <polygon id="Path-3-Copy-7" fill="#565656" style="mix-blend-mode: darken;" opacity="0.300000012" mask="url(#mask-2)" transform="translate(18.356725, 54.265045) scale(-1, 1) rotate(-90.000000) translate(-18.356725, -54.265045) " points="-21.3737952 1.96130696 62.5888784 106.568784 -25.8754281 106.568784"></polygon>
                    <polygon id="Path-3-Copy-4" fill="#565656" style="mix-blend-mode: darken;" opacity="0.100000001" mask="url(#mask-2)" transform="translate(47.985460, 49.955402) rotate(-90.000000) translate(-47.985460, -49.955402) " points="48.6812578 122.209409 70.9301156 -22.2986047 25.0408045 29.3722664"></polygon>
                    <polygon id="Path-3-Copy-8" fill="#565656" style="mix-blend-mode: darken;" opacity="0.100000001" mask="url(#mask-2)" points="109.146659 1.62842171 -51.5584373 -28.2696275 0.112433796 17.6196837"></polygon>
                </g>
            </g>
            <ellipse id="Oval-4" fill="#565656" style="mix-blend-mode: darken;" opacity="0.310000002" cx="92.3450292" cy="51.6028037" rx="4.69590643" ry="4.67757009"></ellipse>
            <ellipse id="Oval-4-Copy" fill="#565656" style="mix-blend-mode: darken;" opacity="0.310000002" cx="109.421053" cy="66.0607477" rx="8.96491228" ry="8.92990654"></ellipse>
            <g id="Group-6" transform="translate(39.143275, 61.574766) scale(-1, 1) translate(-39.143275, -61.574766) translate(23.643275, 47.074766)" fill="#565656" opacity="0.310000002">
                <ellipse id="Oval-4-Copy-2" style="mix-blend-mode: darken;" cx="4.69590643" cy="4.67757009" rx="4.69590643" ry="4.67757009"></ellipse>
                <ellipse id="Oval-4-Copy-3" style="mix-blend-mode: darken;" cx="21.7719298" cy="19.135514" rx="8.96491228" ry="8.92990654"></ellipse>
            </g>
        </g>
    </g>
</svg>