<?xml version="1.0" encoding="UTF-8" standalone="no"?>
<svg width="41px" height="67px" viewBox="0 0 41 67" version="1.1" xmlns="http://www.w3.org/2000/svg" xmlns:xlink="http://www.w3.org/1999/xlink">
    <!-- Generator: Sketch 40.2 (33826) - http://www.bohemiancoding.com/sketch -->
    <title>watch</title>
    <desc>Created with Sketch.</desc>
    <defs></defs>
    <g id="Page-1" stroke="none" stroke-width="1" fill="none" fill-rule="evenodd">
        <g id="watch">
            <path d="M10.0795133,33.9092624 C10.5878841,31.1979516 13.2456516,29 15.9947828,29 L21.0052172,29 C23.7637596,29 26.5436207,31.1744827 27.2109869,33.8439476 L28.7890131,40.1560524 C29.4578227,42.8312908 27.769453,45 25.0078595,45 L12.9921405,45 C10.2350574,45 8.41084687,42.8088167 8.9204867,40.0907376 L10.0795133,33.9092624 Z" id="Rectangle-8-Copy-2" fill="#E90F83"></path>
            <path d="M10.0795133,33.9092624 C10.5878841,31.1979516 13.2456516,29 15.9947828,29 L21.0052172,29 C23.7637596,29 26.5436207,31.1744827 27.2109869,33.8439476 L28.7890131,40.1560524 C29.4578227,42.8312908 27.769453,45 25.0078595,45 L12.9921405,45 C10.2350574,45 8.41084687,42.8088167 8.9204867,40.0907376 L10.0795133,33.9092624 Z" id="Rectangle-8-Copy-3" fill="#E90F83" transform="translate(19.000000, 37.000000) scale(1, -1) translate(-19.000000, -37.000000) "></path>
            <path d="M8.18279447,4.84098054 C8.81798985,2.15367232 11.5803317,-0.01362393 14.3276891,6.44854098e-05 L24.9715503,0.053096389 C27.7300865,0.0668405016 30.4398367,2.26838549 31.0208849,4.95622099 L34.6980292,21.9660988 C35.2804483,24.6602756 33.513027,26.8443374 30.7576037,26.8443374 L7.97687959,26.8443374 C5.21822358,26.8443374 3.49624246,24.6682813 4.132014,21.9785355 L8.18279447,4.84098054 Z" id="Rectangle-11-Copy-5" fill="#CA0871" transform="translate(19.404519, 13.422169) rotate(360.000000) translate(-19.404519, -13.422169) "></path>
            <path d="M31.4056354,8.89701476 L30.5537265,4.95622099 C29.9726783,2.26838549 27.262928,0.0668405016 24.5043918,0.053096389 L13.8605307,6.44854098e-05 C11.1131733,-0.01362393 8.35083142,2.15367232 7.71563604,4.84098054 L5,16.329967 L31.4056354,8.89701476 Z" id="Combined-Shape" fill="#565656" style="mix-blend-mode: darken;" opacity="0.100000001"></path>
            <path d="M8.18279447,44.8409805 C8.81798985,42.1536723 11.5803317,39.9863761 14.3276891,40.0000645 L24.9715503,40.0530964 C27.7300865,40.0668405 30.4398367,42.2683855 31.0208849,44.956221 L34.6980292,61.9660988 C35.2804483,64.6602756 33.513027,66.8443374 30.7576037,66.8443374 L7.97687959,66.8443374 C5.21822358,66.8443374 3.49624246,64.6682813 4.132014,61.9785355 L8.18279447,44.8409805 Z" id="Rectangle-11-Copy-6" fill="#CA0871" transform="translate(19.404519, 53.422169) rotate(180.000000) translate(-19.404519, -53.422169) "></path>
            <path d="M8,62.1052292 C8.67593795,64.6935063 11.3136413,66.7778689 13.9975259,66.7912411 L24.6413871,66.844273 C27.3887445,66.8579614 30.1510863,64.6906651 30.7862817,62.0033569 L31.5720352,58.6790855 L25.7713661,56 L8,62.1052292 Z" id="Combined-Shape" fill="#565656" style="mix-blend-mode: darken;" opacity="0.229999989"></path>
            <rect id="Rectangle-12-Copy" fill="#EE087A" x="35" y="29" width="6" height="10" rx="3"></rect>
            <rect id="Rectangle-7-Copy-2" fill="#F92381" x="0" y="18" width="38" height="38" rx="8"></rect>
            <rect id="Rectangle-7-Copy-3" fill="#AB269D" x="4" y="22" width="30" height="30" rx="6"></rect>
            <path d="M3.35637307,20 C1.32327797,21.4507095 0,23.8293816 0,26.5177383 L0,48.5161481 C0,51.5513915 1.68472578,54.1864391 4.16864781,55.5426609 L23.0527344,55.934912 L4.64257813,22.3235838 L3.35637307,20 Z" id="Combined-Shape" fill="#565656" style="mix-blend-mode: darken;" opacity="0.119999997"></path>
        </g>
    </g>
</svg>