<svg width="793" height="781" viewBox="0 0 793 781" xmlns="http://www.w3.org/2000/svg" xmlns:xlink="http://www.w3.org/1999/xlink"><title>face</title><defs><path d="M.167 286.488l19.992 151.24 246.8 292.42 161.91 50.474 67.273-46.72-88.57-250.332 330.196-68.623 54.842-157.6L379.427 70.93 352.243.52 95.27 143.835l-27.54 110.94L.166 286.488zm453.516 290.354l43.01 106.93 12.103-22.11-55.113-84.82zM673.2 443.198l-101.094 18.064-89.11 27.11 147.28-11.428 42.925-33.746z" id="a"/><linearGradient x1="36.901%" y1="36.713%" x2="106.507%" y2="104.31%" id="c"><stop offset="0%"/><stop stop-color="#181818" offset="100%"/></linearGradient></defs><g fill="none" fill-rule="evenodd"><path fill="#2F2F2F" d="M420.41 38.094L316.846 67.498l88.752 48.39"/><mask id="b" fill="#fff"><use xlink:href="#a"/></mask><use fill="#283036" xlink:href="#a"/><g mask="url(#b)"><path fill="#283036" d="M81.302 138.256l195.833 81.67-212.908 34.88"/><path fill="#171C1F" d="M281.045 122.406l77.975-132.71 23.818 79.203"/><path fill="#171C20" d="M3.05 422.87L452.558 800.47 127.06 778.132"/><path fill="#38424B" d="M174.62 381.562L-2.55 444.52V285.114"/><path fill="#191E22" d="M280.438 122.89l-184.34 21.065L277.73 220.02"/><path fill="#313C43" d="M379.038 71.05l-98.324 51.712 78.55 38.774"/><path fill="#526470" d="M794.586 258.98l-435-97.617 20.337-92.324 422.775 181.665"/><path fill="#272E34" d="M66.606 254.478L174.44 381.202l-176.094-96.13"/><path fill="#3F4A54" d="M278.41 219.908L174.65 381.194 67.22 254.867"/><path fill="#424F59" d="M174.403 381.457l578.05 39.567 42.422-163.96"/><path fill="#272E34" d="M19.883 436.647l155.216-55.06 257.283 401.7"/><path fill="#50606C" d="M353.923-1.842l-73.184 124.42-198.176 22.706"/><path fill="#293137" d="M278.838 220.358L174.712 381.272 790.317 257.76l-431.19-95.704"/></g><path d="M771.035 416.832L174.31 381.415l279.486 438.588L652.635 682.28l118.4-265.448zM280.665 122.89l-2.697 97.237 81.48-58.88-78.783-38.357z" fill="#000" mask="url(#b)"/><g mask="url(#b)"><path fill="url(#c)" d="M114.666 56.146L242.408 259.94l-95.004-31.857L4.422 1.763" transform="translate(172.945 381.33)"/><path fill="#000" d="M173.856 381.708L464.08 508.54l284.74-89.46-21.414-10.446"/></g><path d="M611.526 419.924l-115.12-11.65-109.112-5.834 108.946 31.768 115.286-14.284zM326.856 599.77l82.065 120.686 5.732-24.688-87.797-95.997z" fill="#E8E8E8" mask="url(#b)"/></g></svg>